<?xml version="1.0" encoding="UTF-8" standalone="no"?>
<svg
   xmlns:svg="http://www.w3.org/2000/svg"
   xmlns="http://www.w3.org/2000/svg"
   xmlns:sodipodi="http://sodipodi.sourceforge.net/DTD/sodipodi-0.dtd"
   xmlns:inkscape="http://www.inkscape.org/namespaces/inkscape"
   inkscape:version="1.1-dev (79c9cd5, 2020-05-04)"
   sodipodi:docname="scion-microfrontend-platform-banner-vertical.svg"
   inkscape:export-ydpi="300"
   inkscape:export-xdpi="300"
   inkscape:export-filename="C:\Users\ue57749\Downloads\github\scion-workbench.png"
   id="svg970"
   version="1.1"
   viewBox="0 0 338.66666 169.33334"
   height="640"
   width="1280">
  <defs
     id="defs966" />
  <sodipodi:namedview
     inkscape:window-maximized="1"
     inkscape:window-y="-8"
     inkscape:window-x="-8"
     inkscape:window-height="1356"
     inkscape:window-width="2560"
     units="px"
     width="1280mm"
     showgrid="false"
     inkscape:current-layer="layer1"
     inkscape:document-units="mm"
     inkscape:cy="861.56913"
     inkscape:cx="1567.0127"
     inkscape:zoom="0.39049859"
     inkscape:pageshadow="2"
     inkscape:pageopacity="0.0"
     borderopacity="1.0"
     bordercolor="#666666"
     pagecolor="#ffffff"
     id="base" />
  <g
     id="layer1"
     inkscape:groupmode="layer"
     inkscape:label="Layer 1">
    <g
       transform="translate(0.59516926)"
       id="g1913">
      <path
         id="path1660"
         d="m 25.443845,142.59857 v 12.5504 h -0.89645 v -14.00715 h 1.12058 l 6.61136,13.1107 6.61137,-13.1107 h 1.12058 v 14.00715 h -0.84042 v -12.5504 l -6.38726,12.5504 h -0.9525 z"
         class="st1"
         style="fill:#1f758c;stroke-width:0.560286" />
      <path
         id="path1662"
         d="m 44.829755,141.08579 v 14.00715 h -0.89647 v -14.00715 z"
         class="st1"
         style="fill:#1f758c;stroke-width:0.560286" />
      <path
         id="path1664"
         d="m 67.353235,141.08579 c 2.91348,0 4.76244,1.23264 4.76244,3.97804 0,2.52129 -1.79292,3.80994 -4.70641,3.80994 h -0.72837 l 5.60286,6.2752 h -1.12058 l -5.49079,-6.2752 h -2.85747 v 6.2752 h -0.89645 v -14.00715 h 5.43477 z m -4.53832,0.84044 v 6.21917 h 4.53832 c 2.35321,0 3.922,-0.95248 3.922,-3.08157 0,-2.24115 -1.51276,-3.1376 -3.922,-3.1376 z"
         class="st1"
         style="fill:#1f758c;stroke-width:0.560286" />
      <path
         id="path1666"
         d="m 81.640515,155.31706 c -4.03406,0 -7.0596,-2.96952 -7.0596,-7.22769 0,-4.25817 3.08157,-7.22769 7.0596,-7.22769 3.97803,0 7.05961,2.96952 7.05961,7.22769 0,4.25817 -3.08158,7.22769 -7.05961,7.22769 z m 0,-0.84043 c 3.52981,0 6.16315,-2.63334 6.16315,-6.33123 0,-3.7539 -2.63334,-6.38727 -6.16315,-6.38727 -3.52979,0 -6.21916,2.63337 -6.21916,6.38727 0,3.69789 2.68937,6.33123 6.21916,6.33123 z"
         class="st1"
         style="fill:#1f758c;stroke-width:0.560286" />
      <path
         id="path1668"
         d="m 101.25053,141.08579 v 0.84044 h -8.460315 v 6.10711 h 7.451805 v 0.84043 h -7.451805 v 6.33124 h -0.89646 v -14.00716 h 9.356775 z"
         class="st1"
         style="fill:#1f758c;stroke-width:0.560286" />
      <path
         id="path1670"
         d="m 109.31865,141.08579 c 2.91348,0 4.76244,1.23264 4.76244,3.97804 0,2.52129 -1.79293,3.80994 -4.70641,3.80994 h -0.72838 l 5.60286,6.2752 h -1.12056 l -5.43478,-6.2752 h -2.85747 v 6.2752 h -0.89644 v -14.00715 h 5.37874 z m -4.4823,0.84044 v 6.21917 h 4.53833 c 2.3532,0 3.922,-0.95248 3.922,-3.08157 0,-2.24115 -1.51277,-3.1376 -3.922,-3.1376 z"
         class="st1"
         style="fill:#1f758c;stroke-width:0.560286" />
      <path
         id="path1672"
         d="m 123.66196,155.31706 c -4.03406,0 -7.0596,-2.96952 -7.0596,-7.22769 0,-4.25817 3.08157,-7.22769 7.0596,-7.22769 3.97802,0 7.0596,2.96952 7.0596,7.22769 0,4.25817 -3.08158,7.22769 -7.0596,7.22769 z m 0,-0.84043 c 3.52981,0 6.16315,-2.63334 6.16315,-6.33123 0,-3.7539 -2.63334,-6.38727 -6.16315,-6.38727 -3.52979,0 -6.21916,2.63337 -6.21916,6.38727 0,3.69789 2.68937,6.33123 6.21916,6.33123 z"
         class="st1"
         style="fill:#1f758c;stroke-width:0.560286" />
      <path
         id="path1674"
         d="m 143.83225,153.58017 v -12.49438 h 0.89647 v 14.00715 h -0.84044 l -9.2447,-12.49437 v 12.49437 h -0.84044 v -14.00715 h 0.84044 z"
         class="st1"
         style="fill:#1f758c;stroke-width:0.560286" />
      <path
         id="path1676"
         d="m 146.68971,141.08579 h 11.03763 v 0.84044 h -5.0986 v 13.22274 h -0.84042 v -13.22274 h -5.09861 z"
         class="st1"
         style="fill:#1f758c;stroke-width:0.560286" />
      <path
         id="path1678"
         d="m 169.2132,141.08579 v 0.84044 h -8.51635 v 5.65889 h 7.50784 v 0.84042 h -7.50784 v 5.93904 h 8.51635 v 0.84043 h -9.35677 v -14.00716 h 9.35677 z"
         class="st1"
         style="fill:#1f758c;stroke-width:0.560286" />
      <path
         id="path1680"
         d="m 182.1558,153.58017 v -12.49438 h 0.89647 v 14.00715 h -0.84044 l -9.24471,-12.49437 v 12.49437 h -0.84043 v -14.00715 h 0.84043 z"
         class="st1"
         style="fill:#1f758c;stroke-width:0.560286" />
      <path
         id="path1682"
         d="m 191.28846,141.08579 c 4.59434,0 7.61988,2.80144 7.61988,7.05961 0,4.20214 -3.08155,7.00357 -7.61988,7.00357 h -4.37023 v -14.00715 h 4.37023 z m -3.47378,0.84044 v 12.38232 h 3.52981 c 4.03406,0 6.77946,-2.46526 6.77946,-6.16315 0,-3.7539 -2.68937,-6.21917 -6.77946,-6.21917 z"
         class="st1"
         style="fill:#1f758c;stroke-width:0.560286" />
      <path
         id="path1684"
         d="m 211.68285,141.08579 c 2.80144,0 4.8745,1.34469 4.8745,4.37024 0,2.85746 -2.07306,4.25817 -4.8745,4.25817 h -4.42623 v 5.43477 h -0.89647 v -14.00715 h 5.3227 z m -4.42623,0.84044 v 7.00357 h 4.3702 c 2.29719,0 4.03406,-1.12057 4.03406,-3.47377 0,-2.52128 -1.68085,-3.5298 -4.03406,-3.5298 z"
         class="st1"
         style="fill:#1f758c;stroke-width:0.560286" />
      <path
         id="path1686"
         d="m 220.25524,141.08579 v 13.22276 h 8.40428 v 0.84042 h -9.30075 v -14.00715 h 0.89647 z"
         class="st1"
         style="fill:#1f758c;stroke-width:0.560286" />
      <path
         id="path1688"
         d="m 229.10774,155.14897 6.16315,-14.00715 h 1.00851 l 6.16316,14.00715 h -0.95248 l -2.1291,-4.98654 h -7.11564 l -2.1851,4.98654 z m 3.47378,-5.77094 h 6.44328 l -3.24964,-7.4518 z"
         class="st1"
         style="fill:#1f758c;stroke-width:0.560286" />
      <path
         id="path1690"
         d="m 242.72269,141.08579 h 11.03763 v 0.84044 h -5.0986 v 13.22274 h -0.89645 v -13.22274 h -5.04258 z"
         class="st1"
         style="fill:#1f758c;stroke-width:0.560286" />
      <path
         id="path1692"
         d="m 265.19016,141.08579 v 0.84044 h -8.46033 v 6.10711 h 7.45181 v 0.84043 h -7.45181 v 6.33124 h -0.89645 v -14.00716 h 9.35678 z"
         class="st1"
         style="fill:#1f758c;stroke-width:0.560286" />
      <path
         id="path1694"
         d="m 274.15472,155.31706 c -4.03406,0 -7.0596,-2.96952 -7.0596,-7.22769 0,-4.25817 3.08157,-7.22769 7.0596,-7.22769 3.97806,0 7.05959,2.96952 7.05959,7.22769 0,4.25817 -3.02554,7.22769 -7.05959,7.22769 z m 0,-0.84043 c 3.52979,0 6.16318,-2.63334 6.16318,-6.33123 0,-3.7539 -2.63339,-6.38727 -6.16318,-6.38727 -3.52979,0 -6.21916,2.63337 -6.21916,6.38727 0.0561,3.69789 2.68937,6.33123 6.21916,6.33123 z"
         class="st1"
         style="fill:#1f758c;stroke-width:0.560286" />
      <path
         id="path1696"
         d="m 289.84272,141.08579 c 2.91351,0 4.76245,1.23264 4.76245,3.97804 0,2.52129 -1.79296,3.80994 -4.7064,3.80994 h -0.72839 l 5.60288,6.2752 h -1.12062 l -5.49077,-6.2752 h -2.85746 v 6.2752 h -0.89647 v -14.00715 h 5.43478 z m -4.53831,0.84044 v 6.21917 h 4.53831 c 2.3532,0 3.92202,-0.95248 3.92202,-3.08157 0,-2.24115 -1.51277,-3.1376 -3.92202,-3.1376 z"
         class="st1"
         style="fill:#1f758c;stroke-width:0.560286" />
      <path
         id="path1698"
         d="m 298.69527,142.59857 v 12.5504 h -0.89647 v -14.00715 h 1.12055 l 6.61138,13.1107 6.61139,-13.1107 h 1.12055 v 14.00715 h -0.84043 v -12.5504 l -6.38725,12.5504 h -0.95246 z"
         class="st1"
         style="fill:#1f758c;stroke-width:0.560286" />
      <path
         id="path1700"
         d="m 59.060995,141.92623 v -0.84044 h -3.97802 c -1.90497,0 -3.58582,0.67234 -4.98655,2.07306 -1.34468,1.34469 -2.07305,3.02555 -2.07305,4.98655 0,1.90498 0.67234,3.58583 2.07305,4.98655 1.3447,1.34468 3.02555,2.07306 4.98655,2.07306 h 3.97802 v -0.84043 h -3.97802 c -1.68086,0 -3.19362,-0.61632 -4.37023,-1.79292 -1.23263,-1.23263 -1.7929,-2.68937 -1.7929,-4.37023 0,-1.68086 0.61631,-3.19363 1.7929,-4.37023 1.17661,-1.1766 2.68937,-1.79291 4.37023,-1.79291 h 3.97802 z"
         class="st1"
         style="fill:#1f758c;stroke-width:0.560286" />
      <path
         id="path1702"
         d="m 36.761635,132.8496 v 6.10712 h -0.5603 v -6.10712 z"
         class="st1"
         style="fill:#1f758c;stroke-width:0.560286" />
      <path
         id="path1704"
         d="m 41.187905,139.06876 c -1.79293,0 -3.08158,-1.28865 -3.08158,-3.13758 0,-1.84896 1.34468,-3.13761 3.08158,-3.13761 1.73686,0 3.08155,1.28865 3.08155,3.13761 0,1.84893 -1.34469,3.13758 -3.08155,3.13758 z m 0,-0.56028 c 1.40069,0 2.46524,-1.06454 2.46524,-2.52127 0,-1.51279 -1.06455,-2.57733 -2.46524,-2.57733 -1.40073,0 -2.46527,1.06454 -2.46527,2.57733 -0.0561,1.45673 1.00851,2.52127 2.46527,2.52127 z"
         class="st1"
         style="fill:#1f758c;stroke-width:0.560286" />
      <path
         id="path1706"
         d="m 49.816295,137.9482 v -5.0986 h 0.61631 v 6.10712 h -0.56028 l -3.75392,-5.09861 v 5.09861 h -0.61631 v -6.10712 h 0.56028 z"
         class="st1"
         style="fill:#1f758c;stroke-width:0.560286" />
      <path
         id="path1708"
         d="m 28.469385,135.93118 c -0.33616,-0.33618 -0.78438,-0.50427 -1.28864,-0.50427 h -1.28866 c -0.28014,0 -0.50424,-0.11203 -0.67234,-0.28015 -0.16814,-0.16813 -0.28014,-0.3922 -0.28014,-0.67234 0,-0.28013 0.11202,-0.50424 0.28014,-0.67234 0.16813,-0.16814 0.3922,-0.28014 0.67234,-0.28014 h 2.63334 v -0.67234 h -2.63334 c -0.44824,0 -0.78441,0.16814 -1.12058,0.44824 -0.28014,0.28014 -0.44821,0.67234 -0.44821,1.12055 0,0.44824 0.16813,0.78441 0.44821,1.12058 0.28016,0.28014 0.67234,0.44824 1.12058,0.44824 h 1.28866 c 0.33616,0 0.61631,0.11202 0.84044,0.33617 0.2241,0.22411 0.33617,0.50425 0.33617,0.84042 0,0.33617 -0.11203,0.61631 -0.33617,0.84044 -0.22413,0.2241 -0.50428,0.33617 -0.84044,0.33617 h -2.63335 v 0.61631 h 2.63335 c 0.50426,0 0.89647,-0.16814 1.28864,-0.50427 0.33618,-0.33617 0.50428,-0.78438 0.50428,-1.28865 0,-0.44824 -0.16814,-0.89645 -0.50428,-1.23262 z"
         class="st1"
         style="fill:#1f758c;stroke-width:0.560286" />
      <path
         id="path1710"
         d="m 34.912685,132.8496 h -1.79291 c -0.84044,0 -1.56881,0.28014 -2.18511,0.89645 -0.61632,0.61631 -0.89646,1.34468 -0.89646,2.18513 0,0.84042 0.28014,1.56879 0.89646,2.1851 0.6163,0.61631 1.34467,0.89647 2.18511,0.89647 h 1.79291 v -0.61633 h -1.79291 c -0.67234,0 -1.23263,-0.22411 -1.73688,-0.72835 -0.50427,-0.50427 -0.72837,-1.06455 -0.72837,-1.73689 0,-0.67235 0.2241,-1.23265 0.72837,-1.73689 0.50425,-0.50427 1.06454,-0.72838 1.73688,-0.72838 h 1.79291 z"
         class="st1"
         style="fill:#1f758c;stroke-width:0.560286" />
    </g>
    <g
       id="g1885"
       transform="matrix(1.8501489,0,0,1.8501489,-225.24067,171.39271)">
      <path
         style="fill:#4ea1c4;stroke-width:1.31874"
         class="st6"
         d="m 199.44455,-39.088905 c -12.79179,-23.209843 12.13243,-23.60544 15.693,-39.957851 0.13208,-0.791244 0.39575,-2.901211 0.39575,-2.901211 -0.65941,-0.132082 -1.45066,-0.132082 -2.2419,-0.132082 -15.16547,0 -27.42978,12.264308 -27.42978,27.429827 0,6.989304 2.6375,13.45113 6.98931,18.198594 l 1.97814,-0.659367 c 2.24185,-0.791244 4.21993,-1.450615 4.61558,-1.97811 z"
         id="path1712" />
      <path
         style="fill:#1f758c;stroke-width:1.31874"
         class="st1"
         d="m 215.5332,-81.947967 c 0.13208,0.132081 2.37373,1.71437 3.03309,2.373732 17.67109,15.165519 16.0886,48.661515 -13.18743,46.551532 11.60494,-5.93433 18.46238,-24.528581 14.63804,-33.627862 -0.13208,5.011179 -1.05501,8.967399 -2.76938,13.451138 -3.29681,9.099307 -13.0555,17.011748 -19.91294,20.308597 -0.13208,0.131882 -0.26366,0.131882 -0.52753,0.263764 4.61559,3.428726 10.28618,5.538709 16.48425,5.538709 15.16552,0 27.42983,-12.264283 27.42983,-27.429768 0,-14.506158 -11.07742,-26.242936 -25.18793,-27.429827 z"
         id="path1714" />
      <path
         style="fill:#ffffff;stroke-width:1.31874"
         class="st4"
         d="m 215.5332,-81.947967 c 0,0 0,0 0,0 0,0 0,0 0,0 0,0 0,0 0,0 z"
         id="path1716" />
      <path
         style="fill:#ffffff;stroke-width:1.31874"
         class="st4"
         d="m 217.24752,-53.331299 c 1.58249,-4.351867 2.50561,-8.43992 2.76938,-13.451149 3.82434,9.099282 -3.0331,27.693543 -14.63804,33.627873 29.27603,1.97811 30.85852,-31.386023 13.18743,-46.551542 -0.65936,-0.52748 -2.76938,-2.24185 -3.03309,-2.373733 0,0 0,0 0,0 0,0.132082 -0.26367,2.110018 -0.39575,2.901262 -3.56057,16.484243 -28.48479,16.87984 -15.693,40.089683 -0.39574,0.527494 -2.37373,1.186866 -4.61558,2.109982 l -1.97814,0.659372 c 1.1869,1.318738 2.50562,2.637477 4.08811,3.692471 0.13208,-0.131883 0.26366,-0.131883 0.52748,-0.263765 6.7256,-3.428726 16.61612,-11.341167 19.7811,-20.440469 z"
         id="path1718" />
    </g>
  </g>
</svg>
