<?xml version="1.0" encoding="utf-8"?>
<!-- Generator: Adobe Illustrator 24.1.0, SVG Export Plug-In . SVG Version: 6.00 Build 0)  -->
<svg version="1.1"
	 id="svg6" xmlns:inkscape="http://www.inkscape.org/namespaces/inkscape" xmlns:sodipodi="http://sodipodi.sourceforge.net/DTD/sodipodi-0.dtd" xmlns:svg="http://www.w3.org/2000/svg"
	 xmlns="http://www.w3.org/2000/svg" xmlns:xlink="http://www.w3.org/1999/xlink" x="0px" y="0px" viewBox="0 0 566.9 41.6"
	 style="enable-background:new 0 0 566.9 41.6;" xml:space="preserve">
<style type="text/css">
	.st0{fill:#666666;}
	.st1{fill:#1F758C;}
	.st2{fill:#327F1F;}
	.st3{fill:#A5A5A5;}
	.st4{fill:#FFFFFF;}
	.st5{fill:#60BF4C;}
	.st6{fill:#4EA1C4;}
	.st7{fill:#FF48FF;}
</style>
<path class="st1" d="M53.2,18.2v22.4h-1.6v-25h2l11.8,23.4l11.8-23.4h2v25h-1.5V18.2L66.3,40.6h-1.7L53.2,18.2z"/>
<path class="st1" d="M87.8,15.5v25h-1.6v-25H87.8z"/>
<path class="st1" d="M128,15.5c5.2,0,8.5,2.2,8.5,7.1c0,4.5-3.2,6.8-8.4,6.8h-1.3l10,11.2h-2L125,29.4h-5.1v11.2h-1.6v-25H128z
	 M119.9,17v11.1h8.1c4.2,0,7-1.7,7-5.5c0-4-2.7-5.6-7-5.6H119.9z"/>
<path class="st1" d="M153.5,40.9c-7.2,0-12.6-5.3-12.6-12.9c0-7.6,5.5-12.9,12.6-12.9c7.1,0,12.6,5.3,12.6,12.9
	C166.1,35.6,160.6,40.9,153.5,40.9z M153.5,39.4c6.3,0,11-4.7,11-11.3c0-6.7-4.7-11.4-11-11.4c-6.3,0-11.1,4.7-11.1,11.4
	C142.4,34.7,147.2,39.4,153.5,39.4z"/>
<path class="st1" d="M188.5,15.5V17h-15.1v10.9h13.3v1.5h-13.3v11.3h-1.6v-25H188.5z"/>
<path class="st1" d="M202.9,15.5c5.2,0,8.5,2.2,8.5,7.1c0,4.5-3.2,6.8-8.4,6.8h-1.3l10,11.2h-2L200,29.4h-5.1v11.2h-1.6v-25H202.9z
	 M194.9,17v11.1h8.1c4.2,0,7-1.7,7-5.5c0-4-2.7-5.6-7-5.6H194.9z"/>
<path class="st1" d="M228.5,40.9c-7.2,0-12.6-5.3-12.6-12.9c0-7.6,5.5-12.9,12.6-12.9c7.1,0,12.6,5.3,12.6,12.9
	C241.1,35.6,235.6,40.9,228.5,40.9z M228.5,39.4c6.3,0,11-4.7,11-11.3c0-6.7-4.7-11.4-11-11.4c-6.3,0-11.1,4.7-11.1,11.4
	C217.4,34.7,222.2,39.4,228.5,39.4z"/>
<path class="st1" d="M264.5,37.8V15.5h1.6v25h-1.5l-16.5-22.3v22.3h-1.5v-25h1.5L264.5,37.8z"/>
<path class="st1" d="M269.6,15.5h19.7V17h-9.1v23.6h-1.5V17h-9.1V15.5z"/>
<path class="st1" d="M309.8,15.5V17h-15.2v10.1H308v1.5h-13.4v10.6h15.2v1.5h-16.7v-25H309.8z"/>
<path class="st1" d="M332.9,37.8V15.5h1.6v25H333l-16.5-22.3v22.3H315v-25h1.5L332.9,37.8z"/>
<path class="st1" d="M349.2,15.5c8.2,0,13.6,5,13.6,12.6c0,7.5-5.5,12.5-13.6,12.5h-7.8v-25H349.2z M343,17v22.1h6.3
	c7.2,0,12.1-4.4,12.1-11c0-6.7-4.8-11.1-12.1-11.1H343z"/>
<path class="st1" d="M385.6,15.5c5,0,8.7,2.4,8.7,7.8c0,5.1-3.7,7.6-8.7,7.6h-7.9v9.7h-1.6v-25H385.6z M377.7,17v12.5h7.8
	c4.1,0,7.2-2,7.2-6.2c0-4.5-3-6.3-7.2-6.3H377.7z"/>
<path class="st1" d="M400.9,15.5v23.6h15v1.5h-16.6v-25H400.9z"/>
<path class="st1" d="M416.7,40.6l11-25h1.8l11,25h-1.7l-3.8-8.9h-12.7l-3.9,8.9H416.7z M422.9,30.3h11.5L428.6,17L422.9,30.3z"/>
<path class="st1" d="M441,15.5h19.7V17h-9.1v23.6H450V17H441V15.5z"/>
<path class="st1" d="M481.1,15.5V17H466v10.9h13.3v1.5H466v11.3h-1.6v-25H481.1z"/>
<path class="st1" d="M497.1,40.9c-7.2,0-12.6-5.3-12.6-12.9c0-7.6,5.5-12.9,12.6-12.9c7.1,0,12.6,5.3,12.6,12.9
	C509.7,35.6,504.3,40.9,497.1,40.9z M497.1,39.4c6.3,0,11-4.7,11-11.3c0-6.7-4.7-11.4-11-11.4c-6.3,0-11.1,4.7-11.1,11.4
	C486.1,34.7,490.8,39.4,497.1,39.4z"/>
<path class="st1" d="M525.1,15.5c5.2,0,8.5,2.2,8.5,7.1c0,4.5-3.2,6.8-8.4,6.8h-1.3l10,11.2h-2l-9.8-11.2H517v11.2h-1.6v-25H525.1z
	 M517,17v11.1h8.1c4.2,0,7-1.7,7-5.5c0-4-2.7-5.6-7-5.6H517z"/>
<path class="st1" d="M540.9,18.2v22.4h-1.6v-25h2l11.8,23.4l11.8-23.4h2v25h-1.5V18.2L554,40.6h-1.7L540.9,18.2z"/>
<path class="st1" d="M113.2,17v-1.5h-7.1c-3.4,0-6.4,1.2-8.9,3.7c-2.4,2.4-3.7,5.4-3.7,8.9c0,3.4,1.2,6.4,3.7,8.9
	c2.4,2.4,5.4,3.7,8.9,3.7h7.1v-1.5h-7.1c-3,0-5.7-1.1-7.8-3.2c-2.2-2.2-3.2-4.8-3.2-7.8c0-3,1.1-5.7,3.2-7.8
	c2.1-2.1,4.8-3.2,7.8-3.2H113.2z"/>
<path class="st1" d="M73.4,0.8v10.9h-1V0.8H73.4z"/>
<path class="st1" d="M81.3,11.9c-3.2,0-5.5-2.3-5.5-5.6c0-3.3,2.4-5.6,5.5-5.6c3.1,0,5.5,2.3,5.5,5.6C86.8,9.6,84.4,11.9,81.3,11.9z
	 M81.3,10.9c2.5,0,4.4-1.9,4.4-4.5c0-2.7-1.9-4.6-4.4-4.6c-2.5,0-4.4,1.9-4.4,4.6C76.8,9,78.7,10.9,81.3,10.9z"/>
<path class="st1" d="M96.7,9.9V0.8h1.1v10.9h-1l-6.7-9.1v9.1H89V0.8h1L96.7,9.9z"/>
<path class="st1" d="M58.6,6.3c-0.6-0.6-1.4-0.9-2.3-0.9H54c-0.5,0-0.9-0.2-1.2-0.5c-0.3-0.3-0.5-0.7-0.5-1.2c0-0.5,0.2-0.9,0.5-1.2
	c0.3-0.3,0.7-0.5,1.2-0.5h4.7V0.8H54c-0.8,0-1.4,0.3-2,0.8c-0.5,0.5-0.8,1.2-0.8,2c0,0.8,0.3,1.4,0.8,2c0.5,0.5,1.2,0.8,2,0.8h2.3
	c0.6,0,1.1,0.2,1.5,0.6c0.4,0.4,0.6,0.9,0.6,1.5s-0.2,1.1-0.6,1.5c-0.4,0.4-0.9,0.6-1.5,0.6h-4.7v1.1h4.7c0.9,0,1.6-0.3,2.3-0.9
	c0.6-0.6,0.9-1.4,0.9-2.3C59.5,7.7,59.2,6.9,58.6,6.3z"/>
<path class="st1" d="M70.1,0.8h-3.2c-1.5,0-2.8,0.5-3.9,1.6c-1.1,1.1-1.6,2.4-1.6,3.9c0,1.5,0.5,2.8,1.6,3.9
	c1.1,1.1,2.4,1.6,3.9,1.6h3.2v-1.1h-3.2c-1.2,0-2.2-0.4-3.1-1.3c-0.9-0.9-1.3-1.9-1.3-3.1c0-1.2,0.4-2.2,1.3-3.1
	c0.9-0.9,1.9-1.3,3.1-1.3h3.2V0.8z"/>
<path class="st6" d="M10.3,32.6C0.6,15,19.5,14.7,22.2,2.3c0.1-0.6,0.3-2.2,0.3-2.2C22,0,21.4,0,20.8,0C9.3,0,0,9.3,0,20.8
	C0,26.1,2,31,5.3,34.6l1.5-0.5C8.5,33.5,10,33,10.3,32.6z"/>
<path class="st1" d="M22.5,0.1c0.1,0.1,1.8,1.3,2.3,1.8c13.4,11.5,12.2,36.9-10,35.3c8.8-4.5,14-18.6,11.1-25.5
	c-0.1,3.8-0.8,6.8-2.1,10.2c-2.5,6.9-9.9,12.9-15.1,15.4c-0.1,0.1-0.2,0.1-0.4,0.2c3.5,2.6,7.8,4.2,12.5,4.2
	c11.5,0,20.8-9.3,20.8-20.8C41.6,9.9,33.2,1,22.5,0.1z"/>
<path class="st4" d="M22.5,0.1C22.5,0.1,22.5,0.1,22.5,0.1C22.5,0.1,22.5,0.1,22.5,0.1C22.5,0.1,22.5,0.1,22.5,0.1z"/>
<path class="st4" d="M23.8,21.8c1.2-3.3,1.9-6.4,2.1-10.2c2.9,6.9-2.3,21-11.1,25.5c22.2,1.5,23.4-23.8,10-35.3
	c-0.5-0.4-2.1-1.7-2.3-1.8c0,0,0,0,0,0c0,0.1-0.2,1.6-0.3,2.2C19.5,14.7,0.6,15,10.3,32.6C10,33,8.5,33.5,6.8,34.2l-1.5,0.5
	c0.9,1,1.9,2,3.1,2.8c0.1-0.1,0.2-0.1,0.4-0.2C13.9,34.7,21.4,28.7,23.8,21.8z"/>
</svg>
