<?xml version="1.0" encoding="utf-8"?>
<!-- Generator: Adobe Illustrator 24.1.2, SVG Export Plug-In . SVG Version: 6.00 Build 0)  -->
<svg version="1.1"
	 id="svg6" xmlns:inkscape="http://www.inkscape.org/namespaces/inkscape" xmlns:sodipodi="http://sodipodi.sourceforge.net/DTD/sodipodi-0.dtd" xmlns:svg="http://www.w3.org/2000/svg"
	 xmlns="http://www.w3.org/2000/svg" xmlns:xlink="http://www.w3.org/1999/xlink" x="0px" y="0px" viewBox="0 0 202.9 41.6"
	 style="enable-background:new 0 0 202.9 41.6;" xml:space="preserve">
<style type="text/css">
	.st0{fill:#666666;}
	.st1{fill:#327F1F;}
	.st2{fill:#A5A5A5;}
	.st3{fill:#FFFFFF;}
	.st4{fill:#60BF4C;}
	.st5{fill:#4EA1C4;}
	.st6{fill:#1F758C;}
	.st7{fill:#FF48FF;}
</style>
<path class="st0" d="M73.4,0.8v10.9h-1V0.8H73.4z"/>
<path class="st0" d="M81.3,11.9c-3.2,0-5.5-2.3-5.5-5.6c0-3.3,2.4-5.6,5.5-5.6c3.1,0,5.5,2.3,5.5,5.6C86.8,9.6,84.4,11.9,81.3,11.9z
	 M81.3,10.9c2.5,0,4.4-1.9,4.4-4.5c0-2.7-1.9-4.6-4.4-4.6c-2.5,0-4.4,1.9-4.4,4.6C76.8,9,78.7,10.9,81.3,10.9z"/>
<path class="st0" d="M96.7,9.9V0.8h1.1v10.9h-1l-6.7-9.1v9.1H89V0.8h1L96.7,9.9z"/>
<path class="st0" d="M58.6,6.3c-0.6-0.6-1.4-0.9-2.3-0.9H54c-0.5,0-0.9-0.2-1.2-0.5c-0.3-0.3-0.5-0.7-0.5-1.2c0-0.5,0.2-0.9,0.5-1.2
	c0.3-0.3,0.7-0.5,1.2-0.5h4.7V0.8H54c-0.8,0-1.4,0.3-2,0.8c-0.5,0.5-0.8,1.2-0.8,2c0,0.8,0.3,1.4,0.8,2c0.5,0.5,1.2,0.8,2,0.8h2.3
	c0.6,0,1.1,0.2,1.5,0.6c0.4,0.4,0.6,0.9,0.6,1.5s-0.2,1.1-0.6,1.5c-0.4,0.4-0.9,0.6-1.5,0.6h-4.7v1.1h4.7c0.9,0,1.6-0.3,2.3-0.9
	c0.6-0.6,0.9-1.4,0.9-2.3C59.5,7.7,59.2,6.9,58.6,6.3z"/>
<path class="st0" d="M70.1,0.8h-3.2c-1.5,0-2.8,0.5-3.9,1.6c-1.1,1.1-1.6,2.4-1.6,3.9c0,1.5,0.5,2.8,1.6,3.9
	c1.1,1.1,2.4,1.6,3.9,1.6h3.2v-1.1h-3.2c-1.2,0-2.2-0.4-3.1-1.3c-0.9-0.9-1.3-1.9-1.3-3.1c0-1.2,0.4-2.2,1.3-3.1
	c0.9-0.9,1.9-1.3,3.1-1.3h3.2V0.8z"/>
<path class="st2" d="M10.3,32.6C0.6,15,19.5,14.7,22.2,2.3c0.1-0.6,0.3-2.2,0.3-2.2C22,0,21.4,0,20.8,0C9.3,0,0,9.3,0,20.8
	C0,26.1,2,31,5.3,34.6l1.5-0.5C8.5,33.5,10,33,10.3,32.6z"/>
<path class="st0" d="M22.5,0.1c0.1,0.1,1.8,1.3,2.3,1.8c13.4,11.5,12.2,36.9-10,35.3c8.8-4.5,14-18.6,11.1-25.5
	c-0.1,3.8-0.8,6.8-2.1,10.2c-2.5,6.9-9.9,12.9-15.1,15.4c-0.1,0.1-0.2,0.1-0.4,0.2c3.5,2.6,7.8,4.2,12.5,4.2
	c11.5,0,20.8-9.3,20.8-20.8C41.6,9.9,33.2,1,22.5,0.1z"/>
<path class="st3" d="M22.5,0.1C22.5,0.1,22.5,0.1,22.5,0.1C22.5,0.1,22.5,0.1,22.5,0.1C22.5,0.1,22.5,0.1,22.5,0.1z"/>
<path class="st3" d="M23.8,21.8c1.2-3.3,1.9-6.4,2.1-10.2c2.9,6.9-2.3,21-11.1,25.5c22.2,1.5,23.4-23.8,10-35.3
	c-0.5-0.4-2.1-1.7-2.3-1.8c0,0,0,0,0,0c0,0.1-0.2,1.6-0.3,2.2C19.5,14.7,0.6,15,10.3,32.6C10,33,8.5,33.5,6.8,34.2l-1.5,0.5
	c0.9,1,1.9,2,3.1,2.8c0.1-0.1,0.2-0.1,0.4-0.2C13.9,34.7,21.4,28.7,23.8,21.8z"/>
<path class="st0" d="M51.6,15.5h19.7V17h-9.1v23.6h-1.5V17h-9.1V15.5z"/>
<path class="st0" d="M86.5,40.9c-7.2,0-12.6-5.3-12.6-12.9c0-7.6,5.5-12.9,12.6-12.9c7.1,0,12.6,5.3,12.6,12.9
	C99.1,35.6,93.6,40.9,86.5,40.9z M86.5,39.4c6.3,0,11-4.7,11-11.3c0-6.7-4.7-11.4-11-11.4c-6.3,0-11.1,4.7-11.1,11.4
	C75.4,34.7,80.2,39.4,86.5,39.4z"/>
<path class="st0" d="M116.1,40.9c-7.2,0-12.6-5.3-12.6-12.9c0-7.6,5.5-12.9,12.6-12.9c7.1,0,12.6,5.3,12.6,12.9
	C128.7,35.6,123.3,40.9,116.1,40.9z M116.1,39.4c6.3,0,11-4.7,11-11.3c0-6.7-4.7-11.4-11-11.4c-6.3,0-11.1,4.7-11.1,11.4
	C105.1,34.7,109.8,39.4,116.1,39.4z"/>
<path class="st0" d="M136.1,15.5v23.6h15v1.5h-16.6v-25H136.1z"/>
<path class="st0" d="M157.1,15.5V27h6.1l8-11.5h1.8l-8.6,12.1l9.2,13h-1.8l-8.7-12.1h-6.2v12.1h-1.6v-25H157.1z"/>
<path class="st0" d="M179.3,15.5v25h-1.6v-25H179.3z"/>
<path class="st0" d="M183.2,15.5h19.7V17h-9.1v23.6h-1.5V17h-9.1V15.5z"/>
</svg>
