<?xml version="1.0" encoding="utf-8"?>
<!-- Generator: Adobe Illustrator 24.1.0, SVG Export Plug-In . SVG Version: 6.00 Build 0)  -->
<svg version="1.1"
	 id="svg6" xmlns:inkscape="http://www.inkscape.org/namespaces/inkscape" xmlns:sodipodi="http://sodipodi.sourceforge.net/DTD/sodipodi-0.dtd" xmlns:svg="http://www.w3.org/2000/svg"
	 xmlns="http://www.w3.org/2000/svg" xmlns:xlink="http://www.w3.org/1999/xlink" x="0px" y="0px" viewBox="0 0 166.5 217.9"
	 style="enable-background:new 0 0 166.5 217.9;" xml:space="preserve">
<style type="text/css">
	.st0{fill:#666666;}
	.st1{fill:#1F758C;}
	.st2{fill:#327F1F;}
	.st3{fill:#A5A5A5;}
	.st4{fill:#FFFFFF;}
	.st5{fill:#60BF4C;}
	.st6{fill:#4EA1C4;}
	.st7{fill:#FF48FF;}
</style>
<g>
	<path class="st0" d="M78.9,179.1v38.3h-3.7v-38.3H78.9z"/>
	<path class="st0" d="M106.5,217.9c-11.1,0-19.4-8.1-19.4-19.7c0-11.6,8.3-19.8,19.4-19.8c11,0,19.3,8.1,19.3,19.8
		C125.9,209.8,117.5,217.9,106.5,217.9z M106.5,214.3c8.8,0,15.5-6.6,15.5-16c0-9.5-6.7-16.1-15.5-16.1c-8.9,0-15.6,6.6-15.6,16.1
		C91,207.7,97.7,214.3,106.5,214.3z"/>
	<path class="st0" d="M160.7,211v-31.9h3.7v38.3h-3.5l-23.4-31.8v31.8h-3.7v-38.3h3.6L160.7,211z"/>
	<path class="st0" d="M27.1,198.3L27.1,198.3c-2.2-2.2-4.8-3.3-7.9-3.3h-8c-1.7,0-3.1-0.6-4.3-1.8c-1.2-1.2-1.8-2.6-1.8-4.3
		c0-1.7,0.6-3.1,1.8-4.3c1.2-1.2,2.6-1.8,4.3-1.8h16.5v-3.7H11.3c-2.7,0-5,1-6.9,2.9c-1.9,1.9-2.9,4.3-2.9,7c0,2.7,1,5,2.9,6.9
		c1.9,1.9,4.2,2.9,6.9,2.9h8c2.1,0,3.8,0.7,5.3,2.2c1.5,1.5,2.2,3.2,2.2,5.3c0,2.1-0.7,3.8-2.2,5.3c-1.5,1.5-3.2,2.2-5.3,2.2H2.7
		v3.7h16.5c3.1,0,5.7-1.1,7.9-3.3c2.2-2.2,3.3-4.8,3.3-7.9C30.4,203.1,29.3,200.5,27.1,198.3z"/>
	<path class="st0" d="M67.8,179.1H56.6c-5.3,0-9.8,1.9-13.5,5.6c-3.7,3.7-5.6,8.3-5.6,13.5c0,5.3,1.9,9.8,5.6,13.5
		c3.7,3.7,8.3,5.6,13.5,5.6h11.2v-3.7H56.6c-4.2,0-7.9-1.5-10.9-4.5c-3-3-4.5-6.7-4.5-10.9c0-4.3,1.5-7.9,4.5-10.9
		c3-3,6.6-4.5,10.9-4.5h11.2V179.1z"/>
</g>
<g>
	<path class="st3" d="M41.1,130.5C2.3,60.1,78,58.7,88.8,9.3c0.5-2.5,1.2-8.6,1.3-9C87.8,0.2,85.5,0,83.3,0C37.3,0,0,37.3,0,83.3
		c0,21.2,8,40.6,21.1,55.3l6-1.9C34.1,134.2,39.9,131.8,41.1,130.5z"/>
	<path class="st0" d="M90.2,0.3c0.5,0.4,7.1,5.3,9,7c53.6,46,48.7,147.5-40,141.3c35.1-18.1,55.9-74.4,44.3-102
		c-0.5,15.1-3.4,27.3-8.2,40.7c-9.9,27.6-39.7,51.6-60.6,61.7c-0.4,0.3-0.9,0.5-1.4,0.8c13.9,10.5,31.2,16.7,49.9,16.7
		c46,0,83.3-37.3,83.3-83.3C166.5,39.6,132.9,3.9,90.2,0.3z"/>
	<path class="st4" d="M95.4,87.3c4.8-13.4,7.7-25.6,8.2-40.7c11.5,27.6-9.3,83.9-44.3,102c88.7,6.2,93.5-95.3,40-141.3
		c-2-1.7-8.5-6.6-9-7c0,0-0.1,0-0.1,0c0,0.4-0.8,6.5-1.3,9C78,58.7,2.3,60.1,41.1,130.5c-1.3,1.3-7.1,3.7-14.1,6.1l-6,1.9
		c3.7,4.2,7.8,7.9,12.2,11.3c0.5-0.3,1-0.5,1.4-0.8C55.7,138.9,85.4,114.8,95.4,87.3z"/>
</g>
</svg>
