<?xml version="1.0" encoding="utf-8"?>
<!-- Generator: Adobe Illustrator 24.1.0, SVG Export Plug-In . SVG Version: 6.00 Build 0)  -->
<svg version="1.1"
	 id="svg6" xmlns:inkscape="http://www.inkscape.org/namespaces/inkscape" xmlns:sodipodi="http://sodipodi.sourceforge.net/DTD/sodipodi-0.dtd" xmlns:svg="http://www.w3.org/2000/svg"
	 xmlns="http://www.w3.org/2000/svg" xmlns:xlink="http://www.w3.org/1999/xlink" x="0px" y="0px" viewBox="0 0 41.6 41.6"
	 style="enable-background:new 0 0 41.6 41.6;" xml:space="preserve">
<style type="text/css">
	.st0{fill:#666666;}
	.st1{fill:#1F758C;}
	.st2{fill:#327F1F;}
	.st3{fill:#A5A5A5;}
	.st4{fill:#FFFFFF;}
	.st5{fill:#60BF4C;}
	.st6{fill:#4EA1C4;}
	.st7{fill:#FF48FF;}
</style>
<path class="st5" d="M10.3,32.6C0.6,15,19.5,14.7,22.2,2.3c0.1-0.6,0.3-2.2,0.3-2.2C22,0,21.4,0,20.8,0C9.3,0,0,9.3,0,20.8
	C0,26.1,2,31,5.3,34.6l1.5-0.5C8.5,33.5,10,33,10.3,32.6z"/>
<path class="st2" d="M22.5,0.1c0.1,0.1,1.8,1.3,2.3,1.8c13.4,11.5,12.2,36.9-10,35.3c8.8-4.5,14-18.6,11.1-25.5
	c-0.1,3.8-0.8,6.8-2.1,10.2c-2.5,6.9-9.9,12.9-15.1,15.4c-0.1,0.1-0.2,0.1-0.4,0.2c3.5,2.6,7.8,4.2,12.5,4.2
	c11.5,0,20.8-9.3,20.8-20.8C41.6,9.9,33.2,1,22.5,0.1z"/>
<path class="st4" d="M22.5,0.1C22.5,0.1,22.5,0.1,22.5,0.1C22.5,0.1,22.5,0.1,22.5,0.1C22.5,0.1,22.5,0.1,22.5,0.1z"/>
<path class="st4" d="M23.8,21.8c1.2-3.3,1.9-6.4,2.1-10.2c2.9,6.9-2.3,21-11.1,25.5c22.2,1.5,23.4-23.8,10-35.3
	c-0.5-0.4-2.1-1.7-2.3-1.8c0,0,0,0,0,0c0,0.1-0.2,1.6-0.3,2.2C19.5,14.7,0.6,15,10.3,32.6C10,33,8.5,33.5,6.8,34.2l-1.5,0.5
	c0.9,1,1.9,2,3.1,2.8c0.1-0.1,0.2-0.1,0.4-0.2C13.9,34.7,21.4,28.7,23.8,21.8z"/>
</svg>
