<?xml version="1.0" encoding="UTF-8" standalone="no"?>
<svg
   xmlns:svg="http://www.w3.org/2000/svg"
   xmlns="http://www.w3.org/2000/svg"
   xmlns:sodipodi="http://sodipodi.sourceforge.net/DTD/sodipodi-0.dtd"
   xmlns:inkscape="http://www.inkscape.org/namespaces/inkscape"
   sodipodi:docname="scion-workbench-banner-vertical.svg"
   inkscape:version="1.1-dev (79c9cd5, 2020-05-04)"
   inkscape:export-ydpi="300"
   inkscape:export-xdpi="300"
   inkscape:export-filename="C:\Users\ue57749\Downloads\github\scion-workbench.png"
   id="svg970"
   version="1.1"
   viewBox="0 0 338.66666 169.33334"
   height="640"
   width="1280">
  <defs
     id="defs966" />
  <sodipodi:namedview
     inkscape:window-maximized="1"
     inkscape:window-y="-8"
     inkscape:window-x="-8"
     inkscape:window-height="1356"
     inkscape:window-width="2560"
     units="px"
     width="1280mm"
     showgrid="false"
     inkscape:current-layer="layer1"
     inkscape:document-units="mm"
     inkscape:cy="861.56913"
     inkscape:cx="1567.0127"
     inkscape:zoom="0.39049859"
     inkscape:pageshadow="2"
     inkscape:pageopacity="0.0"
     borderopacity="1.0"
     bordercolor="#666666"
     pagecolor="#ffffff"
     id="base" />
  <g
     id="layer1"
     inkscape:groupmode="layer"
     inkscape:label="Layer 1">
    <g
       id="g1405"
       transform="translate(-9.1469432,5.4204224)">
      <g
         id="g1215"
         transform="matrix(1.2005788,0,0,1.2005788,-72.058068,-6.3150385)">
        <path
           style="fill:#60bf4c;stroke-width:2.03005"
           class="st5"
           d="m 187.41136,83.241814 c -19.69144,-35.728842 18.67641,-36.337826 24.15757,-61.510445 0.20341,-1.218028 0.60918,-4.466077 0.60918,-4.466077 -1.01498,-0.203332 -2.23303,-0.203332 -3.45105,-0.203332 -23.34556,0 -42.22492,18.879476 -42.22492,42.225012 0,10.759245 4.0601,20.706469 10.7592,28.014638 l 3.04512,-1.01508 c 3.45106,-1.218036 6.4961,-2.233041 7.10515,-3.04504 z"
           id="path909" />
        <path
           style="fill:#327f1f;stroke-width:2.03005"
           class="st2"
           d="m 212.17787,17.265292 c 0.20341,0.203332 3.65412,2.639073 4.66918,3.654083 27.20258,23.345548 24.76651,74.908752 -20.30049,71.660631 17.86443,-9.135187 28.42068,-37.758873 22.53353,-51.76614 -0.20342,7.71411 -1.62404,13.804256 -4.26312,20.706472 -5.07514,14.007272 -20.0974,26.187561 -30.65373,31.262676 -0.20342,0.203413 -0.40586,0.203413 -0.81198,0.405875 7.10514,5.278085 15.83435,8.526211 25.37556,8.526211 23.34553,0 42.225,-18.87948 42.225,-42.225014 0,-22.33046 -17.05237,-40.397866 -38.77395,-42.224948 z"
           id="path911" />
        <path
           style="fill:#ffffff;stroke-width:2.03005"
           class="st4"
           d="m 214.81697,61.3173 c 2.43605,-6.699178 3.8571,-12.992262 4.26312,-20.706468 5.88715,14.00729 -4.6691,42.630982 -22.53353,51.766144 45.067,3.045103 47.50307,-48.315064 20.30049,-71.660619 -1.01506,-0.811992 -4.26311,-3.451065 -4.66918,-3.654081 0,0 0,0 0,0 0,0.203332 -0.40588,3.248124 -0.60918,4.466153 -5.48116,25.375559 -43.84902,25.984543 -24.15754,61.713385 -0.60919,0.811988 -3.65409,1.826993 -7.10515,3.248048 l -3.04511,1.015005 c 1.82707,2.030098 3.85709,4.06011 6.29316,5.684195 0.20341,-0.203413 0.40588,-0.203413 0.81198,-0.405902 10.35329,-5.278134 25.57859,-17.458423 30.4507,-31.46569 z"
           id="path913" />
      </g>
    </g>
    <g
       transform="translate(-23.036768,-2.2348576)"
       id="g1280">
      <g
         id="g1263">
        <path
           style="fill:#327f1f;stroke-width:0.942638"
           class="st2"
           d="m 83.833088,134.86591 h 1.602519 l 6.127131,21.86924 7.823894,-21.86924 h 1.791018 l 7.8239,21.77495 6.22139,-21.77495 h 1.60249 l -6.88128,23.56596 h -1.69674 l -7.91816,-21.8692 -7.91815,21.8692 h -1.69675 z"
           id="path881" />
        <path
           style="fill:#327f1f;stroke-width:0.942638"
           class="st2"
           d="m 131.43629,158.80892 c -6.78699,0 -11.87724,-4.99596 -11.87724,-12.16001 0,-7.16406 5.18453,-12.16003 11.87724,-12.16003 6.69272,0 11.87722,4.99597 11.87722,12.16003 0,7.16405 -5.09024,12.16001 -11.87722,12.16001 z m 0,-1.41394 c 5.93862,0 10.36901,-4.43042 10.36901,-10.65183 0,-6.31565 -4.43039,-10.74606 -10.36901,-10.74606 -5.93861,0 -10.46326,4.43041 -10.46326,10.74606 0.0945,6.22141 4.52465,10.65183 10.46326,10.65183 z"
           id="path883" />
        <path
           style="fill:#327f1f;stroke-width:0.942638"
           class="st2"
           d="m 157.7359,134.86591 c 4.9017,0 8.01242,2.07384 8.01242,6.69278 0,4.24184 -3.01645,6.4099 -7.91815,6.4099 h -1.22544 l 9.42637,10.55756 h -1.8853 l -9.23782,-10.55756 h -4.80747 v 10.55756 h -1.5082 v -23.56596 h 9.14359 z m -7.54112,1.41398 v 10.46326 h 7.63539 c 3.95908,0 6.59844,-1.60247 6.59844,-5.18446 0,-3.77059 -2.54514,-5.2788 -6.59844,-5.2788 z"
           id="path885" />
        <path
           style="fill:#327f1f;stroke-width:0.942638"
           class="st2"
           d="m 172.72382,134.86591 v 10.84035 h 5.75009 l 7.54111,-10.84035 h 1.69675 l -8.1067,11.40593 8.6723,12.25431 h -1.69675 l -8.20096,-11.40591 h -5.65583 v 11.40591 h -1.50821 v -23.56596 h 1.50821 z"
           id="path887" />
        <path
           style="fill:#327f1f;stroke-width:0.942638"
           class="st2"
           d="m 191.95362,134.86591 h 8.67229 c 4.05334,0 7.16403,1.50825 7.16403,5.75011 0,2.73363 -1.79103,4.71319 -4.52467,5.27878 3.86482,0.56558 6.0329,2.73365 6.0329,6.12713 0,4.52466 -3.39348,6.40994 -8.10668,6.40994 h -9.23785 z m 1.50825,1.41398 v 9.23786 h 6.88121 c 3.39352,0 6.03292,-1.50824 6.03292,-4.7132 0,-3.3935 -2.45087,-4.52466 -5.65584,-4.52466 z m 0,10.46326 v 10.36904 h 7.72962 c 3.77054,0 6.69272,-1.41395 6.69272,-5.18452 0,-3.67627 -3.01645,-5.18452 -6.97553,-5.18452 z"
           id="path889" />
        <path
           style="fill:#327f1f;stroke-width:0.942638"
           class="st2"
           d="m 230.22473,134.86591 v 1.41398 h -14.3281 v 9.52064 h 12.63135 v 1.41398 h -12.63135 v 9.99194 h 14.3281 v 1.41394 h -15.74206 v -23.56593 h 15.74206 z"
           id="path891" />
        <path
           style="fill:#327f1f;stroke-width:0.942638"
           class="st2"
           d="m 251.99964,155.88674 v -21.02083 h 1.50822 v 23.56596 h -1.41393 l -15.55356,-21.02082 v 21.02082 h -1.41393 v -23.56596 h 1.41393 z"
           id="path893" />
        <path
           style="fill:#327f1f;stroke-width:0.942638"
           class="st2"
           d="m 284.14357,134.86591 v 10.84035 h 15.45927 v -10.84035 h 1.41396 v 23.56596 h -1.41396 v -11.31163 h -15.45927 v 11.40591 h -1.50819 v -23.56596 h 1.50819 z"
           id="path895" />
        <path
           style="fill:#327f1f;stroke-width:0.942638"
           class="st2"
           d="m 105.231,121.00917 v 10.27475 h -0.94265 v -10.27475 z"
           id="path897" />
        <path
           style="fill:#327f1f;stroke-width:0.942638"
           class="st2"
           d="m 112.67779,131.47243 c -3.01641,0 -5.18445,-2.16807 -5.18445,-5.27875 0,-3.11073 2.26232,-5.27879 5.18445,-5.27879 2.92219,0 5.18452,2.16806 5.18452,5.27879 0,3.11068 -2.26233,5.27875 -5.18452,5.27875 z m 0,-0.94263 c 2.35662,0 4.14764,-1.79102 4.14764,-4.24185 0,-2.54514 -1.79102,-4.33615 -4.14764,-4.33615 -2.35655,0 -4.14757,1.79101 -4.14757,4.33615 -0.0944,2.45083 1.69674,4.24185 4.14757,4.24185 z"
           id="path899" />
        <path
           style="fill:#327f1f;stroke-width:0.942638"
           class="st2"
           d="m 127.19445,129.58717 v -8.578 h 1.03689 v 10.27475 h -0.94263 l -6.31567,-8.578 v 8.578 h -1.03689 v -10.27475 h 0.94262 z"
           id="path901" />
        <path
           style="fill:#327f1f;stroke-width:0.942638"
           class="st2"
           d="m 91.279929,126.19368 c -0.565579,-0.56559 -1.319663,-0.8484 -2.168064,-0.8484 h -2.168051 c -0.471314,0 -0.8484,-0.18846 -1.131171,-0.47131 -0.282871,-0.28287 -0.471314,-0.65984 -0.471314,-1.13116 0,-0.47131 0.188468,-0.84836 0.471314,-1.13117 0.282884,-0.28288 0.659857,-0.47131 1.131171,-0.47131 h 4.430381 v -1.13116 h -4.430381 c -0.754123,0 -1.319714,0.28288 -1.88529,0.75412 -0.471314,0.47131 -0.754084,1.13116 -0.754084,1.88524 0,0.75413 0.282883,1.31972 0.754084,1.8853 0.47131,0.47131 1.131167,0.75412 1.88529,0.75412 h 2.168051 c 0.565592,0 1.036893,0.18847 1.41398,0.56558 0.377048,0.37705 0.565579,0.84836 0.565579,1.41394 0,0.56558 -0.188468,1.03689 -0.565579,1.41397 -0.377087,0.37705 -0.848388,0.56559 -1.41398,0.56559 h -4.430377 v 1.03689 h 4.430377 c 0.848401,0 1.508207,-0.28288 2.168064,-0.8484 0.56558,-0.56557 0.848388,-1.31966 0.848388,-2.16805 0,-0.75412 -0.282871,-1.50821 -0.848388,-2.07379 z"
           id="path903" />
        <path
           style="fill:#327f1f;stroke-width:0.942638"
           class="st2"
           d="m 102.12026,121.00917 h -3.016437 c -1.413954,0 -2.639378,0.47131 -3.676271,1.5082 -1.036906,1.0369 -1.508219,2.26233 -1.508219,3.67631 0,1.41393 0.471313,2.63937 1.508219,3.67627 1.036893,1.03689 2.262317,1.50824 3.676271,1.50824 h 3.016437 v -1.03693 h -3.016437 c -1.131171,0 -2.073799,-0.37704 -2.922161,-1.2254 -0.848375,-0.84839 -1.225424,-1.79102 -1.225424,-2.92218 0,-1.13117 0.377049,-2.07383 1.225424,-2.92218 0.848362,-0.84839 1.79099,-1.22544 2.922161,-1.22544 h 3.016437 z"
           id="path905" />
        <path
           style="fill:#327f1f;stroke-width:0.942638"
           class="st2"
           d="m 277.07382,136.27989 v -1.41398 h -6.69273 c -3.20499,0 -6.0329,1.13118 -8.38949,3.48778 -2.26233,2.26233 -3.48775,5.09023 -3.48775,8.38946 0,3.205 1.13119,6.03291 3.48775,8.3895 2.26232,2.26233 5.09025,3.48774 8.38949,3.48774 h 6.69273 v -1.41394 h -6.69273 c -2.82789,0 -5.37304,-1.03689 -7.35258,-3.01645 -2.07381,-2.0738 -3.01645,-4.52466 -3.01645,-7.35257 0,-2.82792 1.03691,-5.37302 3.01645,-7.35258 1.97954,-1.97953 4.52467,-3.01641 7.35258,-3.01641 h 6.69273 z"
           id="path907" />
      </g>
    </g>
  </g>
</svg>
