<?xml version="1.0" encoding="UTF-8" standalone="no"?>
<svg
   xmlns:svg="http://www.w3.org/2000/svg"
   xmlns="http://www.w3.org/2000/svg"
   xmlns:sodipodi="http://sodipodi.sourceforge.net/DTD/sodipodi-0.dtd"
   xmlns:inkscape="http://www.inkscape.org/namespaces/inkscape"
   width="4.1381779mm"
   height="3.9507284mm"
   viewBox="0 0 4.1381779 3.9507284"
   version="1.1"
   id="svg6"
   inkscape:version="1.1-dev (79c9cd5, 2020-05-04)"
   sodipodi:docname="in-progress.svg">
  <defs
     id="defs2" />
  <sodipodi:namedview
     id="base"
     pagecolor="#ffffff"
     bordercolor="#666666"
     borderopacity="1.0"
     inkscape:pageopacity="0.0"
     inkscape:pageshadow="2"
     inkscape:zoom="15.839192"
     inkscape:cx="30.633922"
     inkscape:cy="17.871864"
     inkscape:document-units="mm"
     inkscape:current-layer="layer1"
     showgrid="false"
     inkscape:window-width="1659"
     inkscape:window-height="1233"
     inkscape:window-x="773"
     inkscape:window-y="216"
     inkscape:window-maximized="0" />
  <g
     transform="translate(-57.970877,-203.51162)"
     inkscape:label="Layer 1"
     inkscape:groupmode="layer"
     id="layer1">
    <path
       style="fill:#60bf4c;fill-opacity:1;stroke:none;stroke-width:0;stroke-linecap:butt;stroke-linejoin:miter;stroke-miterlimit:4;stroke-dasharray:none;stroke-opacity:1"
       d="m 61.115868,206.22845 0.514988,0.3153 c -0.03313,0.064 -0.0673,0.12078 -0.113669,0.17729 -0.04773,0.0582 -0.09859,0.11509 -0.15959,0.16953 l -0.420398,-0.46243 z"
       id="path835"
       sodipodi:nodetypes="ccsccc" />
    <path
       sodipodi:nodetypes="ccsccc"
       id="path835-2"
       d="m 60.787529,206.57886 0.375928,0.47255 c -0.05304,0.0488 -0.104585,0.0904 -0.167496,0.12767 -0.06476,0.0383 -0.132031,0.0744 -0.207986,0.10465 l -0.236682,-0.57841 z"
       style="fill:#5cb948;fill-opacity:1;stroke:none;stroke-width:0;stroke-linecap:butt;stroke-linejoin:miter;stroke-miterlimit:4;stroke-dasharray:none;stroke-opacity:1" />
    <path
       style="fill:#58b444;fill-opacity:1;stroke:none;stroke-width:0;stroke-linecap:butt;stroke-linejoin:miter;stroke-miterlimit:4;stroke-dasharray:none;stroke-opacity:1"
       d="m 60.351573,206.7947 0.172973,0.57854 c -0.0674,0.0255 -0.130738,0.045 -0.202985,0.0561 -0.07437,0.0115 -0.150234,0.0199 -0.231999,0.0197 l -0.0043,-0.62495 z"
       id="path835-2-7"
       sodipodi:nodetypes="ccsccc" />
    <path
       style="fill:#54af40;fill-opacity:1;stroke:none;stroke-width:0;stroke-linecap:butt;stroke-linejoin:miter;stroke-miterlimit:4;stroke-dasharray:none;stroke-opacity:1"
       d="m 59.828149,206.85722 -0.01446,0.60367 c -0.072,0.003 -0.138246,0.002 -0.210392,-0.009 -0.07426,-0.0121 -0.149017,-0.0276 -0.226715,-0.053 l 0.189195,-0.59564 z"
       id="path835-2-8"
       sodipodi:nodetypes="ccsccc" />
    <path
       style="fill:#50a93d;fill-opacity:1;stroke:none;stroke-width:0;stroke-linecap:butt;stroke-linejoin:miter;stroke-miterlimit:4;stroke-dasharray:none;stroke-opacity:1"
       d="m 59.383317,206.7298 -0.242648,0.55295 c -0.06791,-0.0242 -0.128782,-0.0503 -0.191053,-0.0886 -0.0641,-0.0394 -0.127384,-0.0821 -0.189588,-0.13516 l 0.401243,-0.47916 z"
       id="path835-2-6"
       sodipodi:nodetypes="ccsccc" />
    <path
       style="fill:#4ca439;fill-opacity:1;stroke:none;stroke-width:0;stroke-linecap:butt;stroke-linejoin:miter;stroke-miterlimit:4;stroke-dasharray:none;stroke-opacity:1"
       d="m 58.978386,206.43605 -0.409415,0.44385 c -0.05635,-0.045 -0.105388,-0.0895 -0.151806,-0.14597 -0.04778,-0.0581 -0.09373,-0.11909 -0.13527,-0.18951 l 0.535354,-0.32246 z"
       id="path835-2-76"
       sodipodi:nodetypes="ccsccc" />
    <path
       style="fill:#499f35;fill-opacity:1;stroke:none;stroke-width:0;stroke-linecap:butt;stroke-linejoin:miter;stroke-miterlimit:4;stroke-dasharray:none;stroke-opacity:1"
       d="m 58.696026,206.01854 -0.52486,0.29857 c -0.04004,-0.0599 -0.07323,-0.11728 -0.100314,-0.18517 -0.02787,-0.0699 -0.05314,-0.14192 -0.07134,-0.22164 l 0.607992,-0.14467 z"
       id="path835-2-9"
       sodipodi:nodetypes="ccsccc" />
    <path
       style="fill:#459931;fill-opacity:1;stroke:none;stroke-width:0;stroke-linecap:butt;stroke-linejoin:miter;stroke-miterlimit:4;stroke-dasharray:none;stroke-opacity:1"
       d="m 58.591189,205.57397 -0.599609,0.0714 c -0.01363,-0.0708 -0.02195,-0.13651 -0.02055,-0.20959 0.0014,-0.0752 0.0061,-0.15143 0.02031,-0.23195 l 0.616465,0.10273 z"
       id="path835-2-90"
       sodipodi:nodetypes="ccsccc" />
    <path
       style="fill:#41942e;fill-opacity:1;stroke:none;stroke-width:0;stroke-linecap:butt;stroke-linejoin:miter;stroke-miterlimit:4;stroke-dasharray:none;stroke-opacity:1"
       d="m 58.672817,205.119 -0.592007,-0.11897 c 0.0091,-0.0715 0.02166,-0.13655 0.04577,-0.20557 0.02481,-0.071 0.05299,-0.14197 0.09155,-0.21407 l 0.553788,0.28966 z"
       id="path835-2-1"
       sodipodi:nodetypes="ccsccc" />
    <path
       sodipodi:nodetypes="ccsccc"
       id="path835-2-1-5"
       d="m 58.866716,204.70855 -0.504747,-0.33145 c 0.03514,-0.0629 0.07109,-0.11859 0.119226,-0.1736 0.04955,-0.0566 0.102181,-0.11192 0.164878,-0.1644 l 0.405545,0.47551 z"
       style="fill:#3d8f2a;fill-opacity:1;stroke:none;stroke-width:0;stroke-linecap:butt;stroke-linejoin:miter;stroke-miterlimit:4;stroke-dasharray:none;stroke-opacity:1" />
    <path
       sodipodi:nodetypes="ccsccc"
       id="path835-2-1-4"
       d="m 59.180365,204.3659 -0.356714,-0.48721 c 0.05495,-0.0466 0.108121,-0.0862 0.172472,-0.12086 0.06624,-0.0357 0.134902,-0.0691 0.212008,-0.0963 l 0.213342,0.58742 z"
       style="fill:#398926;fill-opacity:1;stroke:none;stroke-width:0;stroke-linecap:butt;stroke-linejoin:miter;stroke-miterlimit:4;stroke-dasharray:none;stroke-opacity:1" />
    <path
       sodipodi:nodetypes="ccsccc"
       id="path835-2-1-1"
       d="m 59.579685,204.18144 -0.183499,-0.57529 c 0.06692,-0.0268 0.129895,-0.0474 0.201927,-0.0598 0.07415,-0.0128 0.149846,-0.0226 0.231601,-0.0239 l 0.01572,0.62477 z"
       style="fill:#358422;fill-opacity:1;stroke:none;stroke-width:0;stroke-linecap:butt;stroke-linejoin:miter;stroke-miterlimit:4;stroke-dasharray:none;stroke-opacity:1" />
    <path
       style="fill:#327f1f;fill-opacity:1;stroke:none;stroke-width:0;stroke-linecap:butt;stroke-linejoin:miter;stroke-miterlimit:4;stroke-dasharray:none;stroke-opacity:1"
       d="m 60.064872,203.51162 c 0.672403,0.14073 1.368115,0.29945 1.807713,1.43987 l 0.23647,-0.0377 -0.483454,0.66296 -0.663248,-0.45846 0.27438,-0.046 c -0.169664,-0.51173 -0.593112,-0.8545 -1.171861,-0.92487 z"
       id="path915"
       sodipodi:nodetypes="cccccccc" />
  </g>
</svg>
